<svg width="503" height="513" viewBox="0 0 503 513" fill="none" xmlns="http://www.w3.org/2000/svg">
<path fill-rule="evenodd" clip-rule="evenodd" d="M407.363 13.3704C397.07 29.1506 375.826 58.3485 367.033 68.796C359.273 78.0203 359.443 79.0244 369.82 85.2406C373.546 87.4733 376.615 89.821 376.64 90.4583C376.664 91.0943 375.264 93.3459 373.53 95.4608C371.035 98.5027 370.181 101.576 369.44 110.164C368.925 116.135 368.912 124.636 369.412 129.052L370.321 137.085L378.371 140.668C389.404 145.577 424.013 154.555 436.314 155.7C445.753 156.576 446.802 156.4 452.497 152.976C460.978 147.876 479.734 131.497 490.869 119.468C499.967 109.64 500.243 109.137 501.089 100.826C502.618 85.8252 502.131 56.8858 500.311 54.5462C499.405 53.3812 494.509 51.3352 489.432 49.9983C484.355 48.6628 480.035 47.4517 479.832 47.3083C479.629 47.1635 481.853 41.9716 484.777 35.7688C490.752 23.0913 491.055 21.5636 487.784 20.6083C486.515 20.2376 473.929 16.5043 459.815 12.3136C445.703 8.12163 433.658 4.86194 433.05 5.07032C432.442 5.2787 439.538 7.76034 448.82 10.5857C484.596 21.4757 487.454 22.5352 487.454 24.9045C487.454 30.2196 462.072 71.5497 446.452 91.668C437.119 103.689 436.766 103.795 418.009 100.141C397.387 96.1252 365.32 83.1893 363.841 78.2896C363.585 77.4439 365.738 73.9515 368.625 70.5294C375.105 62.8477 394.086 36.0557 406.95 16.4339C415.937 2.72805 416.818 1.80251 420.212 2.49937C430.17 4.5426 431.186 4.58996 426.134 2.77406C416.813 -0.576296 416.254 -0.261018 407.363 13.3704ZM419.55 12.8332C419.107 13.568 419.524 13.863 420.476 13.4881C423.127 12.4449 440.591 18.9277 441.007 21.109C441.209 22.1671 438.241 27.8963 434.413 33.8406C428.045 43.7279 427.117 44.6142 423.497 44.2611C417.832 43.7076 406.791 39.5359 406.098 37.6862C405.776 36.8242 407.549 33.1654 410.037 29.5579C415.291 21.9398 419.796 14.5422 418.52 15.6288C415.47 18.2255 403.078 36.8662 403.366 38.425C403.818 40.8742 418.163 46.5154 424.167 46.606C428.404 46.671 429.255 45.9647 434.275 38.2193C440.992 27.8584 444.252 21.2605 443.619 19.3107C443.355 18.5001 438.423 16.4244 432.659 14.6979C420.518 11.062 420.609 11.0755 419.55 12.8332ZM102.394 20.2673C119.379 24.3173 129.669 29.9368 138.446 39.954C147.967 50.8197 153.717 65.4295 153.792 78.9391L153.824 84.8158L123.164 83.9037C106.302 83.4017 91.4663 82.6954 90.1964 82.3341C88.5072 81.8524 87.8439 80.1583 87.7212 76.0163C87.6289 72.9028 87.1028 63.6582 86.5529 55.4718C85.5586 40.6766 85.5533 40.7145 85.7313 61.7868C85.8302 73.4454 86.3406 83.4261 86.8654 83.966C87.3916 84.5045 103.265 85.2501 122.141 85.6236L156.461 86.3001V81.5574C156.461 59.2727 142.615 35.5428 124.27 26.3862C115.919 22.2186 102.484 18.1592 97.8317 18.3987C96.3521 18.4758 98.4053 19.3161 102.394 20.2673ZM454.486 29.7027C458.457 32.1018 471.666 36.2654 472.521 35.3872C473.223 34.6674 461.014 29.8895 455.146 28.5877L451.19 27.7109L454.486 29.7027ZM46.2799 34.302C21.1758 46.7982 8.89085 67.2264 8.63239 96.9019C8.57304 103.784 9.30229 110.41 10.4865 113.752C19.2967 138.605 37.8877 155.678 61.2853 160.4C72.5299 162.671 90.5169 161.415 100.068 157.694C122.814 148.831 138.955 128.618 141.603 105.684L142.371 99.0345L134.58 99.7259C124.132 100.653 73.7391 98.9113 72.4375 97.5771C71.8692 96.9953 71.0714 83.6304 70.6626 67.8773L69.9215 39.2342L69.6946 67.6499C69.5694 83.2786 70.0111 96.9466 70.6758 98.025C71.6437 99.5947 78.6671 100.24 106.052 101.275L140.221 102.566L139.191 108.111C133.547 138.482 108.181 159.154 76.6798 159.055C56.5855 158.992 41.2002 152.809 28.3667 139.641C12.6861 123.55 7.20951 103.451 12.0795 79.8606C16.778 57.105 29.6036 42.3396 53.3942 32.2994C57.498 30.5674 59.9337 29.1358 58.8075 29.1182C57.6813 29.1006 52.0439 31.4334 46.2799 34.302ZM447.893 39.1949C447.893 40.1854 466.41 45.717 467.158 44.9498C467.523 44.5763 464.112 42.9851 459.579 41.4141C451.492 38.6117 447.893 37.9284 447.893 39.1949ZM442.05 47.9876C443.479 49.4544 457.997 54.8277 460.298 54.7411C462.821 54.6463 455.407 51.1038 447.948 48.8401C443.99 47.6385 441.336 47.2555 442.05 47.9876ZM400.42 49.2866C401.508 49.9334 411.299 53.2256 422.178 56.6043C452.137 65.9071 456.463 67.106 455.09 65.7217C453.956 64.5797 401.489 47.9713 399.331 48.0701C398.841 48.0931 399.332 48.6412 400.42 49.2866ZM485.566 51.2716C489.143 52.3108 493.702 53.5395 495.696 54.0036C499.895 54.9792 500.257 56.8357 497.014 60.7544C494.816 63.4106 494.816 63.4566 497.014 61.7097C499.188 59.9831 499.321 61.0047 499.308 79.3247C499.285 109.015 499.888 107.317 483.63 123.576C467.249 139.957 452.65 151.786 446.624 153.559C441.256 155.139 420.049 151.532 400.33 145.686C379.393 139.478 373.57 136.841 372.549 133.105C371.378 128.822 371.209 114.853 372.234 107.178C373.009 101.373 373.247 101.071 376.145 102.202C384.787 105.573 418.408 112.227 434.251 113.704C441.797 114.406 444.702 114.103 448.757 112.191C454.124 109.661 483.892 79.9702 491.378 69.6796C496.996 61.9587 493.512 65.4768 478.74 82.4383C472.305 89.8278 462.693 99.4174 457.38 103.75C447.956 111.435 447.521 111.627 439.564 111.623C426.967 111.617 397.975 106.236 377.013 100.014C373.426 98.9492 373.389 98.3741 376.627 94.0495L379.149 90.6816L385.499 93.2512C395.112 97.1428 418.457 103.118 428.19 104.179C436.311 105.064 437.097 104.899 441.049 101.486C445.62 97.5406 460.742 76.5968 471.085 59.8911C474.648 54.1349 477.901 49.4165 478.313 49.4043C478.725 49.3921 481.989 50.2324 485.566 51.2716ZM403.214 65.7041C419.939 71.4265 445.515 79.1827 447.381 79.0988C448.025 79.069 446.747 78.2382 444.541 77.2518C439.654 75.0678 390.784 60.1563 389.096 60.3349C388.434 60.4053 394.788 62.8206 403.214 65.7041ZM398.442 78.498C418.974 85.518 439.385 91.4907 437.816 90.0199C435.979 88.2974 384.923 72.191 382.318 72.5117C381.758 72.5807 389.013 75.2748 398.442 78.498ZM227.528 83.8063C227.086 84.261 224.639 84.7129 222.089 84.8103C219.538 84.9091 214.277 86.6019 210.394 88.572C204.629 91.4989 202.688 93.4298 199.785 99.1319C196.317 105.942 196.276 106.303 198.058 114.142C199.063 118.559 201.829 125.128 204.207 128.74C207.276 133.403 208.532 136.86 208.539 140.664C208.547 144.939 209.181 146.348 211.676 147.636C213.717 148.69 215.628 151.754 217.184 156.472C218.68 161.002 221.338 165.36 224.321 168.165C227.085 170.764 228.701 173.317 228.18 174.267C227.491 175.52 227.673 175.531 228.958 174.313C230.287 173.053 229.523 171.643 225.261 167.484C221.548 163.858 219.369 160.238 218.198 155.744C217.076 151.441 215.274 148.348 212.856 146.583C210.851 145.117 209.209 142.788 209.209 141.408C209.209 139.051 209.459 139.025 213.31 140.996C216.23 142.49 219.744 142.903 225.511 142.428L233.609 141.761L233.607 145.976C233.605 149.379 234.206 150.278 236.723 150.644C238.439 150.893 240.388 150.537 241.053 149.855C241.787 149.102 241.079 148.658 239.253 148.725C236.437 148.831 236.262 148.36 236.551 141.485C236.882 133.615 238.88 129.608 240.25 134.066C241.923 139.504 243.271 140.739 248.25 141.396C257.08 142.559 263.775 141.092 265.236 137.674C265.952 136.001 267.288 134.63 268.203 134.63C270.774 134.63 270.221 142.332 267.504 144.363C266.204 145.336 264.375 148.804 263.44 152.07C261.313 159.503 256.929 166.496 253.056 168.633C247.045 171.947 250.554 176.577 259.078 176.577C264.474 176.577 264.843 176.8 264.106 179.622C263.67 181.297 263.303 183.056 263.294 183.532C263.283 184.008 260.525 185.724 257.162 187.347C244.79 193.314 221.726 189.957 218.506 181.719C216.493 176.574 216.951 179.655 220.457 194.886C224.359 211.827 235.587 278.226 235.554 284.151C235.534 287.405 233.312 284.183 224.353 267.913C218.206 256.75 211.254 243.842 208.906 239.23L204.636 230.843L208.241 223.301C212.732 213.903 212.726 213.112 208.142 213.112C206.105 213.112 203.324 212.275 201.963 211.254C199.549 209.443 199.559 209.181 202.333 200.843C205.888 190.157 205.171 188.59 201.426 198.862C197.021 210.938 198.12 214.465 206.285 214.465C208.739 214.465 210.546 214.922 210.301 215.48C210.054 216.037 208.216 219.689 206.214 223.596L202.574 230.695L206.734 239.157C211.644 249.143 227.971 279.166 232.45 286.446C234.979 290.558 235.583 293.37 235.583 301.038C235.583 308.127 235.129 310.537 233.796 310.537C223.817 310.537 197.516 307.266 191.989 305.34L184.971 302.892L182.687 286.756C180.415 270.709 176.831 256.757 178.367 269.943C178.757 273.292 179.678 279.276 180.411 283.239C181.928 291.436 181.698 291.78 170.748 297.68C162.324 302.219 146.279 302.693 138.521 298.632C120.351 289.121 109.478 262.46 108.058 223.937C107.394 205.902 107.535 204.138 109.809 202.108C115.864 196.708 117.201 197.35 129.094 211.384C135.26 218.659 143.645 229.396 147.725 235.242C156.123 247.277 157.863 247.305 149.985 235.28L144.826 227.406L148.66 222.44C158.03 210.3 173.748 197.411 190.088 188.467C195.165 185.688 198.725 183.406 198 183.397C195.291 183.363 176.566 194.647 167.289 201.902C162.002 206.036 154.512 213.007 150.644 217.393L143.613 225.367L135.285 215.519C130.705 210.101 124.345 202.852 121.152 199.41C115.356 193.164 115.348 193.142 117.441 188.991C121.177 181.578 119.301 177.987 114.18 182.743C112.099 184.675 111.674 184.508 109.041 180.714C106.441 176.967 102.394 175.066 102.394 177.592C102.394 178.149 99.8757 178.631 96.7978 178.659C92.6031 178.699 91.0931 179.289 90.7701 181.015C90.1859 184.126 96.6185 193.059 102.095 196.743L106.544 199.736L105.679 208.114C103.837 225.965 109.178 262.475 115.486 275.165L118.192 280.606L113.26 281.136L108.329 281.667L113.648 281.894C118.063 282.082 119.373 282.822 121.337 286.235C124.029 290.911 135.97 301.065 138.777 301.065C142.11 301.065 140.737 303.191 136.351 304.821C125.378 308.904 115.083 324.01 113.412 338.476C111.06 358.856 125.741 380.364 156.461 401.55C173.243 413.123 204.63 429.031 222.855 435.201C230.218 437.693 236.406 439.806 236.605 439.894C236.804 439.982 235.766 442.931 234.297 446.447C231.023 454.287 230.937 456.689 233.934 456.632C237.297 456.57 239.671 454.319 246.623 444.608C250.682 438.937 252.529 435.181 251.947 433.783C251.456 432.606 251.105 430.474 251.166 429.046C251.312 425.629 235.967 394.756 227.449 381.329C223.758 375.512 216.913 365.576 212.238 359.25L203.738 347.748L211.476 356.086L219.214 364.424L226.384 356.94C244.098 338.448 275.625 323.304 301.518 320.849L308.77 320.162L302.836 321.557C268.45 329.646 239.093 344.403 223.455 361.459L219.897 365.339L227.948 377.855L235.997 390.372L249.966 390.368C288.113 390.357 324.421 379.843 340.886 364.038C350.062 355.232 355.804 343.559 356.604 332.088C357.549 318.534 356.306 314.063 349.589 306.87C346.368 303.421 343.877 300.495 344.054 300.37C344.23 300.245 347.204 299.355 350.66 298.393C354.118 297.429 359.534 294.957 362.696 292.9L368.447 289.158L374.213 292.505C382.072 297.068 385.831 300.869 388.033 306.478L389.893 311.214H400.101C413.042 311.214 422.305 315.362 433.22 326.044C445.878 338.433 451.868 353.242 451.829 372.05C451.779 396.413 442.038 415.945 424.751 426.341C419.268 429.637 419.229 429.717 418.588 438.907C418.174 444.854 416.817 450.47 414.788 454.637C408.613 467.326 390.702 482.676 374.238 489.392C367.898 491.978 364.346 492.425 350.309 492.399C336.355 492.373 332.115 491.83 322.68 488.854L311.534 485.339L294.328 494.612C272.248 506.511 260.527 509.971 242.176 510.01C221.391 510.053 202.309 503.219 188.11 490.643L182.176 485.387L172.285 490.674C159.676 497.414 149.563 499.191 133.971 497.404C102.926 493.847 83.4249 478.613 75.7659 451.934L73.0455 442.456L56.4009 442.462C41.6974 442.467 39.0389 442.105 33.6085 439.359C15.607 430.261 3.28771 410.47 3.111 390.372C2.9554 372.638 12.3893 359.951 33.3777 349.672C42.5809 345.165 44.3717 343.767 44.3717 341.087C44.3717 336.13 49.5727 319.979 53.2452 313.529C62.1992 297.808 78.671 287.108 99.4445 283.519C104.126 282.71 104.686 282.4 101.682 282.281C95.5385 282.036 83.0135 285.803 74.5145 290.451C59.4708 298.68 47.4074 316.242 43.9392 334.965L42.4121 343.212L30.4041 349.127C5.84862 361.22 -3.25962 379.007 2.82616 402.983C7.12643 419.921 17.738 433.482 32.4059 440.781C40.7994 444.958 41.5629 445.084 56.4088 444.776L71.7413 444.456L73.3237 450.904C75.8991 461.403 83.715 475.167 90.8254 481.728C104.524 494.365 125.403 500.832 148.86 499.699C159.307 499.196 161.368 498.614 170.957 493.463L181.533 487.781L188.449 493.54C207.136 509.105 234.595 515.409 261.069 510.212C272.603 507.947 280.262 504.756 297.749 494.928L310.464 487.784L323.463 491.46C339.389 495.966 359.688 496.574 371.409 492.896C386.492 488.164 405.434 473.623 414.231 460.024C418.212 453.87 419.455 450.309 420.671 441.595L422.178 430.791L429.431 425.691C443.259 415.968 450.67 402.195 453.166 381.589C456.719 352.25 443.92 326.281 419.806 313.902C411.795 309.79 409.363 309.184 400.87 309.184C391.45 309.184 391.078 309.059 389.75 305.463C387.862 300.351 383.705 296.035 376.683 291.9C373.42 289.978 370.528 288.235 370.256 288.026C369.984 287.818 371.356 285.704 373.302 283.33C384.444 269.744 395.073 236.536 397.242 208.533C398.121 197.187 398.012 196.387 395.295 194.284L392.418 192.057L399.569 185.721C407.201 178.961 411.059 171.634 407.689 170.307C406.661 169.902 405.199 169.966 404.439 170.447C403.68 170.93 403.057 170.614 403.057 169.745C403.057 168.749 401.877 168.469 399.87 168.986C397.9 169.493 396.424 169.162 396.008 168.117C395.574 167.032 393.964 168.066 391.504 171.006C387.743 175.5 387.613 175.542 384.279 173.3C379.625 170.171 378.395 172.676 381.319 179.328C383.939 185.291 383.268 188.854 379.703 187.897C377.856 187.401 373.571 192.022 361.491 207.543C352.803 218.705 345.383 227.873 345.003 227.916C344.622 227.961 341.689 224.301 338.483 219.784C331.984 210.624 321.671 200.985 310.749 193.858C302.036 188.173 291.532 182.676 287.012 181.435C285.199 180.938 287.911 182.597 293.04 185.123C312.208 194.564 330.148 209.317 339.164 223.054L343.483 229.633L339.642 235.845C334.77 243.73 334.588 246.803 339.435 239.328C345.297 230.295 377.228 190.215 378.61 190.16C379.306 190.131 383.381 191.478 387.664 193.153L395.452 196.197L394.726 210.405C393.411 236.134 381.284 272.055 369.984 283.689C358.645 295.366 346.825 299.564 332.507 297.006C319.279 294.642 315.465 293.275 312.229 289.741C309.666 286.941 309.498 285.921 310.621 279.97C313.2 266.296 313.452 263.659 311.923 266.323C311.144 267.682 309.439 274.893 308.134 282.346C306.829 289.8 305.252 296.371 304.628 296.949C304.006 297.527 300.825 298.945 297.562 300.102C294.298 301.257 288.097 303.517 283.784 305.123C278.663 307.03 271.016 308.364 261.759 308.966C247.617 309.888 247.576 309.881 246.796 306.689C245.476 301.294 247.568 291.235 251.344 284.827C261.176 268.142 279.1 233.203 279.1 230.723C279.1 229.173 277.643 224.956 275.862 221.351C272.315 214.168 272.555 213.112 277.738 213.112C281.502 213.112 284.375 210.926 284.375 208.062C284.375 205.709 276.35 184.359 275.713 185.014C275.444 185.29 277.014 190.244 279.2 196.023C284.04 208.813 283.552 211.758 276.593 211.758C273.862 211.758 271.268 212.126 270.829 212.577C270.39 213.028 271.865 217.216 274.108 221.883L278.187 230.369L270.237 245.759C265.863 254.222 258.958 266.932 254.89 274.002C248.927 284.367 247.491 286.133 247.472 283.121C247.422 274.379 255.777 227.035 262.781 196.384C265.308 185.324 267.126 176.018 266.823 175.707C266.519 175.394 263.223 174.769 259.499 174.317C255.773 173.864 252.726 173.04 252.726 172.485C252.726 171.93 254.205 170.481 256.012 169.266C259.45 166.955 265.913 155.296 265.913 151.406C265.913 150.164 267.469 147.669 269.372 145.86C272.331 143.045 272.727 141.779 272.113 137.086C271.689 133.841 272.339 127.917 273.705 122.58C276.296 112.448 275.945 97.9032 272.997 93.285C269.005 87.0335 261.044 84.376 244.154 83.6548C235.451 83.284 227.969 83.3517 227.528 83.8063ZM383.072 112.389C392.819 115.53 428.773 123.812 432.158 123.693C433.923 123.632 422.904 120.602 407.673 116.961C379.988 110.343 372.289 108.912 383.072 112.389ZM259.319 120.004C259.319 120.606 256.169 121.099 252.318 121.099C244.797 121.099 241.349 122.889 240.624 127.173C240.033 130.658 235.996 131.481 235.187 128.28C234.848 126.935 234.501 128.661 234.417 132.117C234.24 139.383 233.297 140.052 223.277 140.022C214.602 139.995 213.127 138.96 212.255 132.294C211.427 125.955 212.231 125.161 221.736 122.942C228.252 121.421 228.271 121.4 223.385 121.25C219.392 121.128 218.44 120.584 218.44 118.429C218.44 115.915 219.53 115.739 237.231 115.384C252.289 115.084 256.35 115.397 257.671 116.959C258.578 118.032 259.319 119.402 259.319 120.004ZM445.759 132.6C445.762 141.531 445.976 145.008 446.233 140.328C446.491 135.647 446.49 128.341 446.229 124.09C445.968 119.84 445.757 123.67 445.759 132.6ZM383.277 121.928C393.034 125.077 430.813 133.462 433.157 132.999C435.261 132.584 381.316 119.589 378.661 119.873C377.936 119.95 380.013 120.875 383.277 121.928ZM228.989 122.97C228.989 123.256 230.177 123.808 231.628 124.197C233.08 124.587 233.936 124.353 233.528 123.679C232.819 122.5 228.989 121.902 228.989 122.97ZM262.508 123.273C264.014 123.866 264.594 125.923 264.594 130.668C264.594 138.304 262.66 140.042 254.165 140.042C248.946 140.042 248.853 139.957 249.627 135.983C250.131 133.397 249.88 131.924 248.935 131.924C248.118 131.924 247.451 133.446 247.451 135.307C247.451 140.527 243.924 139.429 242.912 133.894C241.832 127.989 242.903 124.172 245.865 123.372C249.367 122.426 260.194 122.361 262.508 123.273ZM219.758 127.864C219.758 128.608 221.539 129.217 223.715 129.217C225.89 129.217 227.671 128.608 227.671 127.864C227.671 127.12 225.89 126.511 223.715 126.511C221.539 126.511 219.758 127.12 219.758 127.864ZM249.759 127.466C251.391 127.788 254.06 127.788 255.693 127.466C257.325 127.143 255.99 126.879 252.726 126.879C249.462 126.879 248.126 127.143 249.759 127.466ZM383.277 131.34C390.515 133.878 427.788 142.724 431.3 142.739C436.387 142.76 432.231 141.546 408.332 136.033C379.079 129.285 375.508 128.617 383.277 131.34ZM227.879 135.983C227.879 137.844 228.178 138.605 228.544 137.674C228.91 136.745 228.91 135.223 228.544 134.292C228.178 133.362 227.879 134.122 227.879 135.983ZM241.731 158.469C239.671 159.614 238.291 160.863 238.663 161.246C239.83 162.444 244.535 160.329 245.31 158.258C246.194 155.893 246.384 155.882 241.731 158.469ZM394.239 172.179C393.787 173.482 392.831 175.323 392.115 176.271C391.399 177.22 391.206 178.4 391.688 178.894C392.169 179.386 394.306 177.697 396.437 175.139C400.847 169.847 401.888 171.591 397.632 177.143C392.8 183.445 396.437 182.952 401.807 176.576C404.737 173.098 406.951 171.369 406.974 172.542C407.02 174.949 400.822 184.696 399.246 184.696C398.653 184.696 396.531 186.252 394.532 188.153C391.8 190.752 390.017 191.413 387.354 190.812C384.299 190.123 383.803 189.321 383.752 184.987C383.72 182.222 383.21 178.438 382.619 176.577L381.544 173.194L384.555 175.9L387.565 178.607L391.026 174.213C395.007 169.159 395.369 168.929 394.239 172.179ZM218.44 176.577C215.829 177.435 215.692 177.661 217.78 177.661C219.231 177.661 221.901 177.172 223.715 176.577C226.326 175.719 226.463 175.493 224.374 175.493C222.923 175.493 220.253 175.982 218.44 176.577ZM270.623 177.592C271.279 178.149 272.26 179.216 272.8 179.96C273.362 180.732 273.793 180.297 273.805 178.945C273.816 177.628 272.849 176.577 271.627 176.577C270.419 176.577 269.966 177.034 270.623 177.592ZM205.501 180.207C202.373 181.343 200.047 182.51 200.331 182.803C200.616 183.095 204.065 182.163 207.996 180.731C211.927 179.299 214.253 178.132 213.165 178.136C212.077 178.14 208.627 179.072 205.501 180.207ZM276.216 178.854C277.167 179.245 278.305 179.197 278.742 178.747C279.18 178.298 278.402 177.979 277.012 178.037C275.476 178.102 275.163 178.423 276.216 178.854ZM107.287 186.725C106.936 185.237 106.174 182.801 105.592 181.313C104.881 179.496 105.671 179.94 107.996 182.666C111.04 186.234 111.785 186.521 114.161 185.034C118.183 182.517 118.44 182.885 116.312 188.112C115.244 190.735 114.644 193.626 114.977 194.54C115.312 195.452 113.918 197.168 111.88 198.354C108.239 200.472 108.069 200.414 102.107 194.971C98.7706 191.924 95.0294 187.301 93.7952 184.696L91.5494 179.96L97.6312 185.992C103.753 192.064 105.981 191.464 101.076 185.065C96.5526 179.166 98.2906 178.323 103.23 184.019C106.426 187.704 107.721 188.568 107.287 186.725ZM206.785 185.431C204.576 190.406 204.998 191.468 207.386 186.945C208.502 184.831 209.168 182.85 208.867 182.54C208.565 182.232 207.629 183.532 206.785 185.431ZM242.176 192.016C250.346 192.035 254.547 191.403 257.671 189.687C260.027 188.393 261.957 187.697 261.957 188.142C261.957 188.587 260.786 193.931 259.355 200.017C257.923 206.102 256.28 214.126 255.702 217.848L254.652 224.613L242.809 225.29C235.5 225.708 231.64 226.411 232.724 227.13C233.69 227.77 238.967 227.862 244.451 227.334L254.42 226.376L253.591 229.553C253.135 231.302 252.754 233.494 252.744 234.423C252.731 235.641 249.618 236.115 241.626 236.115H230.527L229.099 229.283C226.769 218.136 226.446 218.535 237.891 218.429C243.511 218.377 249.297 217.757 250.748 217.052C252.516 216.193 248.986 215.979 240.033 216.404L226.682 217.037L225.926 212.03C225.511 209.275 224.773 205.653 224.288 203.978C223.407 200.936 223.423 200.933 240.374 200.795C252.996 200.691 256.16 200.35 252.726 199.462C250.187 198.806 242.702 198.641 236.093 199.096C229.485 199.552 223.753 199.385 223.356 198.726C222.96 198.069 222.219 195.254 221.71 192.472L220.786 187.416L225.877 189.704C229.324 191.253 234.585 191.999 242.176 192.016ZM229.649 209.052C227.919 209.815 231.095 210.214 238.88 210.214C245.407 210.214 251.935 209.692 253.385 209.052C255.115 208.289 251.939 207.89 244.154 207.89C237.627 207.89 231.099 208.412 229.649 209.052ZM251.658 242.204L251.118 246.94H241.373C232.645 246.94 231.627 246.669 231.627 244.345C231.627 242.917 231.267 240.786 230.826 239.609C230.135 237.762 231.545 237.468 241.111 237.468H252.196L251.658 242.204ZM249.957 250.661C249.587 257.32 248.345 258.44 241.269 258.494C235.473 258.54 234.316 258.126 233.704 255.788C231.875 248.8 232.403 248.293 241.517 248.293C248.852 248.293 250.07 248.635 249.957 250.661ZM247.702 265.207C247.177 269.817 247.008 269.943 241.373 269.943C236.544 269.943 235.583 269.511 235.583 267.348C235.583 265.92 235.223 263.789 234.782 262.612C234.114 260.823 235.152 260.471 241.111 260.471H248.24L247.702 265.207ZM245.886 275.694C245.523 279.561 244.956 280.143 241.187 280.515C237.077 280.922 236.901 280.742 236.901 276.117C236.901 271.494 237.094 271.296 241.6 271.296C246.107 271.296 246.283 271.476 245.886 275.694ZM244.814 288.887C244.814 293.758 244.484 294.299 241.517 294.299C238.55 294.299 238.22 293.758 238.22 288.887C238.22 284.016 238.55 283.474 241.517 283.474C244.484 283.474 244.814 284.016 244.814 288.887ZM312.804 293.58C314.211 294.673 314.67 295.586 313.824 295.609C312.976 295.634 311.345 296.022 310.197 296.474C308.702 297.062 308.111 296.487 308.111 294.444C308.111 291.084 309.306 290.864 312.804 293.58ZM181.905 298.021C182.289 300.066 182.369 301.982 182.086 302.277C181.802 302.572 179.036 302.264 175.938 301.591L170.307 300.368L174.923 297.445C180.935 293.639 181.088 293.651 181.905 298.021ZM244.814 300.388C244.814 304.539 244.405 305.124 241.517 305.124C238.629 305.124 238.22 304.539 238.22 300.388C238.22 296.238 238.629 295.653 241.517 295.653C244.405 295.653 244.814 296.238 244.814 300.388ZM244.814 309.184C244.814 309.928 243.33 310.537 241.517 310.537C239.704 310.537 238.22 309.928 238.22 309.184C238.22 308.44 239.704 307.831 241.517 307.831C243.33 307.831 244.814 308.44 244.814 309.184ZM244.197 444.559C234.474 456.908 232.352 457.26 236.424 445.85C238.99 438.658 248.633 430.064 250.517 433.288C251.262 434.561 249.264 438.124 244.197 444.559Z" fill="#2D2D2D" stroke="#555555" stroke-width="2"/>
</svg>
